<svg width="233" height="44" viewBox="0 0 233 44" fill="none" xmlns="http://www.w3.org/2000/svg">
<g id="Group">
<path id="Vector" d="M124.383 36.6274V7.37207H142.48V14.1593H131.917V36.6274H124.383Z" fill="#E30613"/>
<path id="Vector_2" d="M165.275 36.6274V25.1593H154.052V36.6274H146.518V7.37207H154.052V18.2941H165.275V7.37207H172.808V36.6274H165.275Z" fill="#E30613"/>
<path id="Vector_3" d="M216.613 36.6274V14.1593H207.797V7.37207H233V14.1593H224.146V36.6274H216.613Z" fill="#E30613"/>
<path id="Vector_4" d="M196.691 36.6274V19.9714L184.652 36.6274H178.361V7.37207H185.895V23.8721L197.7 7.37207H204.224V36.6274H196.691Z" fill="#E30613"/>
<path id="Vector_5" d="M81.0453 36.6274V19.2302L73.5117 28.4359L65.978 19.2693V36.6274H58.4443V7.37207H65.9003L73.5505 17.4359L81.2007 7.37207H88.6567V36.6274H81.0453Z" fill="#E30613"/>
<path id="Vector_6" d="M102.908 26.3296H109.937L106.442 17.1629L102.908 26.3296ZM113.86 36.6274L112.267 32.5317H100.54L98.9475 36.6274H91.375L102.986 7.37207H109.976L121.587 36.6274H113.86Z" fill="#E30613"/>
<path id="Vector_7" d="M0 13.3014C0 9.7518 1.398 6.39718 3.8445 3.90072C6.291 1.40426 9.59183 0 13.0868 0H43.2603V6.78725H13.0868C11.3782 6.78725 9.74717 7.48937 8.54333 8.6986C7.3395 9.90782 6.67933 11.5851 6.6405 13.3404L6.60167 24.7305C6.44633 26.1738 5.86383 27.5391 4.893 28.6313C3.92217 29.6845 2.60183 30.3866 1.20383 30.6596L0 30.8547V13.3014Z" fill="#E30613"/>
<path id="Vector_8" d="M0 44.0002V37.213H30.1347C31.8433 37.213 33.4743 36.5109 34.6782 35.3016C35.882 34.0924 36.5422 32.4151 36.581 30.6598V19.8548C36.581 18.2945 37.1247 16.7732 38.1343 15.603C39.144 14.4328 40.5032 13.6136 42.0177 13.3796L43.2215 13.1846V30.6598C43.2215 34.2094 41.8235 37.5641 39.377 40.0605C36.9305 42.557 33.6297 43.9612 30.1347 43.9612H0V44.0002Z" fill="#E30613"/>
<path id="Vector_9" d="M25.5522 30.8154V22.0388L21.63 26.8367L17.669 22.0388V30.8154H12.4653V13.5742H17.3972L21.5912 19.1132L25.824 13.5742H30.7558V30.8154H25.5522Z" fill="#E30613"/>
</g>
</svg>
