<svg width="161" height="48" viewBox="0 0 161 48" fill="none" xmlns="http://www.w3.org/2000/svg">
<g id="Group">
<g id="Group_2">
<path id="Vector" d="M77.5865 29.7583H89.2155C89.2475 30.1745 89.2475 30.6541 89.2475 31.0386C89.2475 38.2068 83.9997 41.887 78.3955 41.887C71.658 41.887 66.8635 37.0864 66.8635 30.3985C66.8635 23.9021 71.658 18.9092 78.3955 18.9092C82.6069 18.9092 86.4618 21.0852 88.3408 25.1175L85.6841 25.9492C84.2264 23.2288 81.4728 21.6288 78.3955 21.6288C73.4721 21.6288 69.9408 25.2133 69.9408 30.3977C69.9408 35.5822 73.4714 39.1659 78.3955 39.1659C82.5092 39.1659 86.0726 36.8617 86.4939 32.4773H77.5858V29.7583H77.5865Z" fill="black"/>
<path id="Vector_2" d="M92.8118 24.9582H95.5326V26.8786C95.9859 25.5026 97.4116 24.6709 99.3875 24.6709C99.9378 24.6709 100.683 24.735 100.942 24.8307V27.423C100.521 27.2631 99.9699 27.199 99.4196 27.199C96.8927 27.199 95.5326 28.5434 95.5326 30.8793V41.6002H92.8118V24.9582Z" fill="black"/>
<path id="Vector_3" d="M111.374 24.6699C116.621 24.6699 120.314 28.2861 120.314 33.2466C120.314 38.2711 116.654 41.8873 111.341 41.8873C106.159 41.8873 102.433 38.2711 102.433 33.2466C102.433 28.2861 106.061 24.6699 111.374 24.6699ZM111.341 39.3592C114.969 39.3592 117.463 36.8627 117.463 33.2466C117.463 29.6621 114.839 27.1981 111.341 27.1981C107.842 27.1981 105.283 29.6304 105.283 33.2466C105.283 36.831 107.777 39.3592 111.341 39.3592Z" fill="black"/>
<path id="Vector_4" d="M136.187 38.9435C135.312 40.7357 133.175 41.8878 130.712 41.8878C126.145 41.8878 123.78 39.6153 123.78 34.4957V24.9585H126.501V34.1112C126.501 36.9597 127.473 39.3597 131.263 39.3597C134.21 39.3597 136.186 37.5358 136.186 34.4316V24.9585H138.907V41.5998H136.186V38.9435H136.187Z" fill="black"/>
<path id="Vector_5" d="M146.488 39.0711V47.9999H143.767V24.9579H146.488V27.934C147.622 25.9819 149.76 24.6699 152.87 24.6699C157.469 24.6699 161 27.9023 161 33.1508C161 38.3352 157.566 41.8873 152.643 41.8873C149.598 41.8873 147.686 40.831 146.488 39.0711ZM158.149 33.2149C158.149 29.503 155.72 27.1988 152.319 27.1988C148.755 27.1988 146.488 29.4065 146.488 33.0233V33.6318C146.488 37.5043 149.144 39.3599 152.415 39.3599C155.85 39.3592 158.149 36.9592 158.149 33.2149Z" fill="black"/>
</g>
<g id="Group_3">
<g id="Group_4">
<path id="Vector_6" d="M39.843 41.599L35.1455 33.8857L30.5457 41.599H25.0384L32.1134 29.9816L24.9021 19.1958H30.6557L35.2752 26.3971L39.6812 19.1958H45.1885L38.0937 30.3337L45.3831 41.599H39.843Z" fill="black"/>
<path id="Vector_7" d="M63.2849 33.9837C63.2849 38.9125 59.5269 41.985 54.6027 41.985C50.2617 41.985 46.6071 39.6168 46.2515 34.464H50.949C51.2726 36.7041 53.0874 37.6647 55.0634 37.6647C57.5255 37.6647 58.5881 36.0323 58.5881 33.9204C58.5881 31.7119 56.9358 30.3359 54.6355 30.3359C52.7245 30.3359 51.4606 31.2324 50.8775 32.1922H46.3878L47.9395 19.1987H62.7069L62.2142 23.5515H51.6501L51.2303 27.851C51.2303 27.851 52.3396 26.5599 55.7026 26.5599C59.7536 26.5585 63.2849 29.245 63.2849 33.9837Z" fill="black"/>
</g>
<path id="Vector_8" d="M46.8066 16.4073C44.3037 6.77072 36.3657 0 19.8906 0H0L2.70042 18.0375C4.73176 34.313 11.0328 39.5493 22.1828 41.4776C22.2346 41.4855 22.5881 41.5352 22.5925 41.127C22.5939 40.9801 22.4999 40.8533 22.3709 40.7986C14.8338 37.6635 13.9737 27.3824 12.3636 17.0654L11.118 8.84378H22.4729C32.9416 8.84378 41.0246 8.68032 46.1412 16.6644C46.217 16.7767 46.3358 16.8595 46.4765 16.8595C46.674 16.8595 46.8212 16.7011 46.8212 16.5059C46.8212 16.4707 46.8161 16.4375 46.8066 16.4073Z" fill="#5FAF2D"/>
</g>
</g>
</svg>
